
<svg version="1.1" id="图层_1" xmlns="http://www.w3.org/2000/svg" xmlns:xlink="http://www.w3.org/1999/xlink" x="0px" y="0px"
	 viewBox="0 0 600 50" enable-background="new 0 0 600 50" xml:space="preserve">
    <path fill="none" stroke="#000000" stroke-width="0.3756" stroke-miterlimit="10" d="M177.21,11.59h38.58 M260.88,11.59h38.58
	 M344.55,11.59h38.58"/>
    <path d="M5.87,7.64H4.03V6.91c0-0.02,0.04-0.07,0.13-0.13c0.09-0.05,0.13-0.1,0.13-0.12c0.02-0.03-0.28-0.16-0.94-0.38v1.37H0.27
	l0.16,0.3l0.56-0.04h2.36v1.12c0.23,0,0.46-0.09,0.68-0.26V7.89h1.84v1.12c0,0.05,0.09,0.05,0.26,0c0.25-0.09,0.39-0.16,0.43-0.22
	v-0.9h3.3L9.91,7.8L9,7.04l-0.55,0.6H6.56V6.95c-0.03,0,0.02-0.04,0.16-0.13C6.85,6.74,6.9,6.68,6.9,6.65L5.87,6.23V7.64z M7.2,9.31
	H2.79l-0.9-0.43c0.03,1.48,0,2.93-0.09,4.32c0.14,0.12,0.38,0.07,0.73-0.16v-0.52h2.05v1.15h-4.62l0.22,0.35l0.64-0.13h3.77v2.48
	c0.34-0.02,0.59-0.11,0.73-0.25v-2.22h4.61v-0.04L9,13.08l-0.46,0.59H5.32v-1.15h2.01v0.47c0.2,0.02,0.44-0.08,0.73-0.3
	c-0.03-0.58-0.04-1.51-0.04-2.83c-0.03,0,0.02-0.05,0.16-0.18C8.33,9.58,8.4,9.5,8.4,9.48C8.37,9.45,8.1,9.22,7.59,8.79L7.2,9.31z
	 M7.33,10.76H2.54V9.82C2.51,9.65,2.6,9.56,2.79,9.56h4.54V10.76z M7.33,11.02v1.24H2.54v-1.24H7.33z"/>
    <path d="M5.28,28.91h0.6l0.34-1.36c0.12-0.48,0.29-0.88,0.53-1.22c0.24-0.33,0.51-0.5,0.84-0.52c0.09,0,0.17,0.02,0.26,0.06
	c0.07,0.04,0.12,0.12,0.12,0.26c-0.01,0.11-0.06,0.32-0.15,0.64c-0.1,0.31-0.19,0.65-0.28,0.99c-0.1,0.35-0.15,0.61-0.16,0.79
	c0.01,0.16,0.06,0.26,0.16,0.34c0.1,0.07,0.21,0.1,0.36,0.1c0.32-0.02,0.58-0.14,0.76-0.39c0.18-0.24,0.32-0.51,0.43-0.8l-0.16-0.07
	c-0.06,0.17-0.16,0.38-0.29,0.61c-0.12,0.24-0.29,0.36-0.48,0.39c-0.05,0-0.11-0.01-0.15-0.03c-0.06-0.02-0.08-0.07-0.08-0.13
	c0.01-0.05,0.06-0.24,0.15-0.58c0.1-0.34,0.19-0.69,0.29-1.05c0.09-0.36,0.14-0.6,0.15-0.7c-0.01-0.26-0.07-0.45-0.21-0.55
	c-0.14-0.1-0.31-0.14-0.52-0.14c-0.2,0.01-0.42,0.07-0.65,0.21c-0.23,0.13-0.42,0.31-0.57,0.55L6.54,26.3l0.2-0.75
	c-0.17,0.02-0.36,0.03-0.59,0.06c-0.22,0.02-0.4,0.02-0.52,0.02H5.47l-0.06,0.19h0.66L5.28,28.91z"/>
    <path d="M16.66,8.44c-0.14,0.11-0.33,0.19-0.56,0.21h-0.12c0.16,0.37,0.28,0.56,0.34,0.56c0.46-0.11,1.75-0.3,3.89-0.56
	c0.07,0.14,0.13,0.31,0.22,0.47c0.05,0.14,0.13,0.24,0.21,0.31c0.41,0.05,0.5-0.24,0.31-0.9C20.57,8.15,20,7.74,19.23,7.28
	l-0.09,0.13c0.43,0.41,0.73,0.76,0.94,1.07l-3.17,0.09c0.45-0.41,0.96-0.89,1.53-1.46c0.12-0.12,0.24-0.19,0.38-0.22
	c0.07,0,0.1-0.01,0.13-0.04c0.05,0-0.2-0.19-0.77-0.56C17.63,7.38,17.12,8.1,16.66,8.44L16.66,8.44z M14.86,7.32h-3.59l0.18,0.38
	l0.47-0.12h1.02v1.49h-0.59c-0.07,0-0.13-0.02-0.22-0.08l-0.38-0.26l-0.09,7.5c0.23-0.09,0.42-0.16,0.56-0.22V15.2h2.74v0.6
	c0.2-0.07,0.38-0.14,0.56-0.26v-1.33l0.12,0.04c0.55-0.43,1.12-1.04,1.72-1.84c0,0.05,0.01,0.12,0.04,0.18
	c0.28,0.82,0.54,1.39,0.77,1.71c-0.83,0.82-2.03,1.46-3.59,1.89v0.13c1.82-0.37,3.13-0.92,3.93-1.63c0.55,0.46,1.22,0.9,2.02,1.33
	c0.02-0.02,0.05-0.07,0.09-0.13c0.14-0.2,0.41-0.32,0.81-0.38l0.04-0.08c-1.15-0.21-2.02-0.58-2.62-1.12
	c0.46-0.66,0.83-1.3,1.12-1.93c0.25-0.23,0.42-0.37,0.47-0.43c-0.43-0.39-0.67-0.61-0.72-0.64c-0.07,0.02-0.18,0.16-0.35,0.43h-1.53
	c0.05-0.12,0.15-0.27,0.3-0.47c0.05-0.09,0.18-0.16,0.34-0.22c0.09,0,0.13-0.01,0.13-0.04l-0.81-0.47
	c-0.69,1.65-1.45,2.87-2.27,3.64V9.5c0.16-0.14,0.26-0.24,0.3-0.3c-0.34-0.28-0.54-0.44-0.6-0.47c-0.11,0.12-0.21,0.23-0.3,0.34
	h-0.47V7.59h1.62l0.04-0.04l-0.81-0.73L14.86,7.32z M13.96,7.59v1.49h-0.6V7.59H13.96z M12.25,12.55v-2.7
	c-0.03-0.35,0.09-0.52,0.34-0.52h0.3C12.92,10.96,12.7,12.03,12.25,12.55L12.25,12.55z M13.96,11.52c-0.09,0.55,0.24,0.77,0.99,0.69
	v1.11h-2.74v-0.6l0.13,0.04c0.71-0.68,1.05-1.82,1.02-3.42h0.6V11.52z M14.95,11.77c-0.43,0.07-0.61-0.05-0.56-0.34
	c0.03-0.02,0.04-0.05,0.04-0.09V9.34h0.52V11.77z M15.8,11.61l0.04,0.13c0.54-0.43,1.13-0.94,1.75-1.55
	c0.12-0.11,0.27-0.22,0.47-0.3c0.05,0,0.09-0.02,0.09-0.04c-0.05-0.03-0.32-0.18-0.77-0.43C16.93,10.23,16.41,10.95,15.8,11.61
	L15.8,11.61z M18.93,9.5c0.62,0.49,1.1,1.03,1.41,1.63c0.05,0.14,0.12,0.23,0.18,0.25c0.31,0.14,0.44-0.11,0.38-0.77
	c-0.23-0.32-0.85-0.71-1.89-1.19L18.93,9.5z M19.44,11.95c-0.39,0.98-0.72,1.61-0.99,1.93c-0.39-0.37-0.72-0.91-0.99-1.63
	c0.09-0.16,0.14-0.26,0.18-0.3H19.44z M14.95,15.03h-2.74v-1.49h2.74V15.03z"/>
    <path d="M25.98,24.41c-0.09,0.14-0.16,0.23-0.22,0.27c-0.07,0.03-0.14,0.05-0.22,0.04h-1.11l0.78-0.82
	c0.11-0.11,0.24-0.27,0.37-0.47c0.14-0.2,0.21-0.42,0.22-0.67c-0.01-0.26-0.1-0.47-0.26-0.61c-0.17-0.14-0.36-0.22-0.58-0.22
	c-0.21,0-0.41,0.06-0.6,0.2c-0.18,0.14-0.32,0.38-0.39,0.73l0.1,0.02c0.05-0.14,0.12-0.27,0.21-0.4c0.09-0.13,0.25-0.2,0.45-0.21
	c0.27,0.01,0.45,0.09,0.54,0.24c0.09,0.15,0.13,0.29,0.13,0.42c0,0.36-0.2,0.76-0.61,1.2l-0.83,0.88v0.06h1.82l0.26-0.64
	L25.98,24.41z"/>
    <path d="M24.92,8.88l-0.04,1.46c-0.28,0.29-0.42,0.43-0.39,0.43c0.44,0.31,0.69,0.47,0.78,0.47c0.02,0,0.14-0.13,0.34-0.38h4.92
	c-0.02,0.14-0.04,0.26-0.04,0.38c-0.02,2.56-0.2,3.89-0.52,3.98c-0.36,0.18-1.12,0.18-2.27,0v0.13c0.78,0.09,1.25,0.39,1.41,0.94
	c0.03,0.08,0.07,0.12,0.09,0.12c0.89-0.2,1.46-0.58,1.71-1.15c0.14-0.52,0.23-1.69,0.26-3.51c0-0.21,0.01-0.42,0.04-0.65
	c-0.03,0,0.04-0.05,0.21-0.18c0.18-0.08,0.26-0.14,0.26-0.16c-0.26-0.23-0.55-0.47-0.85-0.73c-0.03,0-0.11,0.1-0.22,0.31
	c-0.14,0.2-0.21,0.29-0.21,0.25h-4.76V8.62h6.47l0.04-0.08l-1.07-0.9l-0.47,0.72h-4.96V7.12l0.3-0.26c0.05-0.05,0.1-0.1,0.13-0.12
	L25,6.18C24.98,6.84,24.95,7.74,24.92,8.88L24.92,8.88z M28.13,12.94h-5.66l0.25,0.34c0.28-0.02,0.52-0.05,0.69-0.09h6.2l0.04-0.04
	l-1.03-0.93L28.13,12.94z"/>
    <rect x="27.65" y="23.81" width="2.16" height="0.27"/>
    <path d="M37.91,6.23c0.49,0.45,0.79,0.94,0.9,1.45h-4.83l0.3,0.39l0.43-0.13h9.13l0.03-0.09l-0.98-0.77l-0.52,0.59h-3.25
	C39.42,7.33,39.5,7,39.32,6.7c-0.31-0.23-0.77-0.43-1.37-0.6L37.91,6.23z M36.24,11.06c0.2,0.03,0.44-0.04,0.73-0.21v-0.39h3.64
	v0.47c0.34,0.03,0.58-0.04,0.72-0.21c0-0.09,0-0.24,0-0.47c0-0.14-0.01-0.28-0.04-0.43c0-0.18,0-0.34,0-0.52l0.47-0.38
	c-0.23-0.18-0.52-0.38-0.85-0.65c-0.03,0-0.12,0.09-0.26,0.26c-0.14,0.16-0.21,0.24-0.21,0.21H37.1l-0.81-0.43
	C36.26,9.66,36.24,10.58,36.24,11.06L36.24,11.06z M40.62,9.01v1.24h-3.64v-0.9c-0.03-0.23,0.08-0.34,0.34-0.34H40.62z M42.02,11.53
	h-6.46l-0.73-0.38c0,1.23,0,3.01,0,5.35c0.26,0,0.48-0.11,0.69-0.34v-3.93c-0.03-0.28,0.12-0.44,0.47-0.44h6.25v3.43
	c0.09,0.25-0.52,0.27-1.8,0.04v0.13c0.94,0.25,1.36,0.59,1.24,1.02c-0.02,0.03-0.02,0.04,0,0.04c0.69-0.11,1.08-0.43,1.21-0.94
	v-3.33l0.5-0.35c-0.34-0.36-0.64-0.62-0.9-0.77C42.44,11.09,42.28,11.25,42.02,11.53L42.02,11.53z M36.76,15.17
	c0.23,0.03,0.46-0.03,0.68-0.18V14.4h2.66v0.47c0.25,0.09,0.47,0.01,0.64-0.22V13.2l0.35-0.3c-0.21-0.23-0.44-0.43-0.69-0.6
	l-0.47,0.39h-2.36L36.8,12.3L36.76,15.17z M40.1,14.14h-2.66V13.2c-0.02-0.16,0.08-0.25,0.31-0.25h2.36V14.14z M45.72,11.19
	l0.12,0.09c0.18-0.18,0.35-0.37,0.52-0.6c0.12-0.14,0.2-0.26,0.26-0.34h0.94v1.8h-1.76l0.22,0.38l0.47-0.18h1.07v2.7
	c0,0.18-0.16,0.36-0.47,0.56c-0.03,0.03-0.03,0.04,0,0.04c0.16,0.2,0.39,0.41,0.68,0.6c0-0.03,0.03-0.08,0.09-0.13
	c0.28-0.52,0.93-1.37,1.93-2.56l-0.09-0.09l-1.5,1.33v-2.44h1.75l0.04-0.04l-0.68-0.77l-0.56,0.6h-0.56v-1.8h1.63l0.04-0.09
	l-0.82-0.69l-0.43,0.52h-1.84c0.09-0.23,0.23-0.52,0.43-0.85c0.09-0.18,0.19-0.37,0.31-0.6h2.39V8.54l-0.72-0.69l-0.43,0.52h-1.12
	c0.12-0.37,0.23-0.69,0.35-0.94c0.08-0.18,0.21-0.29,0.38-0.34c0.05-0.03,0.1-0.08,0.13-0.13c0-0.03-0.25-0.15-0.73-0.38
	c-0.09-0.05-0.16-0.11-0.25-0.18C47.16,8.22,46.57,9.82,45.72,11.19L45.72,11.19z M54.45,6.99l-0.26,0.22l-0.21,0.16h-3.61
	l0.22,0.34l0.6-0.08h2.74l-1.03,0.98l-0.52-0.21c0,0.52,0,0.9,0,1.15h-2.7l0.25,0.39l0.56-0.13h1.89c0,0.59-0.01,0.96-0.04,1.11
	c-0.03,0.21-0.05,0.32-0.09,0.35c-0.05,0.02-0.2,0.02-0.43,0c-0.23,0-0.56-0.04-0.99-0.13v0.13c0.78,0.2,1.16,0.48,1.16,0.85
	c0,0.05,0.01,0.09,0.04,0.09c0.43-0.12,0.72-0.32,0.9-0.6c0.05-0.12,0.09-0.48,0.09-1.12c0-0.2,0-0.43,0-0.68h2.86l0.04-0.04
	l-0.85-0.77l-0.56,0.55h-1.49V9.04c0-0.02,0.07-0.11,0.21-0.25L53.08,8.7c0.93-0.66,1.63-0.94,2.09-0.85c0.03,0,0.05-0.01,0.09-0.04
	C55.21,7.69,54.93,7.42,54.45,6.99L54.45,6.99z M54.1,12.43h-3.17c-0.39-0.23-0.61-0.35-0.64-0.38v3.81h-1.41l0.21,0.38l0.65-0.13
	h6.29l0.04-0.04l-0.69-0.81l-0.5,0.6h-0.09v-2.87l0.12-0.09c0.21-0.14,0.31-0.23,0.31-0.25c-0.28-0.26-0.55-0.47-0.77-0.65
	C54.39,12.06,54.28,12.2,54.1,12.43L54.1,12.43z M51.62,15.86H50.8v-2.74c0-0.29,0.11-0.43,0.31-0.43h0.52V15.86z M52.91,12.69v3.17
	h-0.77v-3.17H52.91z M54.28,15.86h-0.81v-3.17h0.81V15.86z M63.4,8.44c-0.14,0.11-0.33,0.19-0.56,0.21h-0.12
	c0.16,0.37,0.28,0.56,0.34,0.56c0.46-0.11,1.75-0.3,3.89-0.56c0.07,0.14,0.13,0.31,0.22,0.47c0.05,0.14,0.13,0.24,0.21,0.31
	c0.41,0.05,0.5-0.24,0.31-0.9c-0.37-0.37-0.94-0.79-1.71-1.25l-0.09,0.13c0.43,0.41,0.73,0.76,0.94,1.07l-3.17,0.09
	c0.45-0.41,0.96-0.89,1.53-1.46c0.12-0.12,0.24-0.19,0.38-0.22c0.07,0,0.1-0.01,0.13-0.04c0.05,0-0.2-0.19-0.77-0.56
	C64.38,7.38,63.86,8.1,63.4,8.44L63.4,8.44z M61.6,7.32h-3.59l0.18,0.38l0.47-0.12h1.02v1.49h-0.59c-0.07,0-0.13-0.02-0.22-0.08
	l-0.38-0.26l-0.09,7.5c0.23-0.09,0.42-0.16,0.56-0.22V15.2h2.74v0.6c0.2-0.07,0.38-0.14,0.56-0.26v-1.33l0.12,0.04
	c0.55-0.43,1.12-1.04,1.72-1.84c0,0.05,0.01,0.12,0.04,0.18c0.28,0.82,0.54,1.39,0.77,1.71c-0.83,0.82-2.03,1.46-3.59,1.89v0.13
	c1.82-0.37,3.13-0.92,3.93-1.63c0.55,0.46,1.22,0.9,2.02,1.33c0.02-0.02,0.05-0.07,0.09-0.13c0.14-0.2,0.41-0.32,0.81-0.38
	l0.04-0.08c-1.15-0.21-2.02-0.58-2.62-1.12c0.46-0.66,0.83-1.3,1.12-1.93c0.25-0.23,0.42-0.37,0.47-0.43
	c-0.43-0.39-0.67-0.61-0.72-0.64c-0.07,0.02-0.18,0.16-0.35,0.43h-1.53c0.05-0.12,0.15-0.27,0.3-0.47c0.05-0.09,0.18-0.16,0.34-0.22
	c0.09,0,0.13-0.01,0.13-0.04l-0.81-0.47c-0.69,1.65-1.45,2.87-2.27,3.64V9.5c0.16-0.14,0.26-0.24,0.3-0.3
	c-0.34-0.28-0.54-0.44-0.6-0.47c-0.11,0.12-0.21,0.23-0.3,0.34h-0.47V7.59h1.62l0.04-0.04l-0.81-0.73L61.6,7.32z M60.7,7.59v1.49
	h-0.6V7.59H60.7z M58.99,12.55v-2.7c-0.03-0.35,0.09-0.52,0.34-0.52h0.3C59.66,10.96,59.44,12.03,58.99,12.55L58.99,12.55z
	 M60.7,11.52c-0.09,0.55,0.24,0.77,0.99,0.69v1.11h-2.74v-0.6l0.13,0.04c0.71-0.68,1.05-1.82,1.02-3.42h0.6V11.52z M61.69,11.77
	c-0.43,0.07-0.61-0.05-0.56-0.34c0.03-0.02,0.04-0.05,0.04-0.09V9.34h0.52V11.77z M62.54,11.61l0.04,0.13
	c0.54-0.43,1.13-0.94,1.75-1.55c0.12-0.11,0.27-0.22,0.47-0.3c0.05,0,0.09-0.02,0.09-0.04c-0.05-0.03-0.32-0.18-0.77-0.43
	C63.67,10.23,63.15,10.95,62.54,11.61L62.54,11.61z M65.67,9.5c0.62,0.49,1.1,1.03,1.41,1.63c0.05,0.14,0.12,0.23,0.18,0.25
	c0.31,0.14,0.44-0.11,0.38-0.77c-0.23-0.32-0.85-0.71-1.89-1.19L65.67,9.5z M66.18,11.95c-0.39,0.98-0.72,1.61-0.99,1.93
	c-0.39-0.37-0.72-0.91-0.99-1.63c0.09-0.16,0.14-0.26,0.18-0.3H66.18z M61.69,15.03h-2.74v-1.49h2.74V15.03z M69.75,11.32l0.12,0.08
	c0.18-0.16,0.42-0.49,0.73-0.99c0.05-0.05,0.1-0.11,0.12-0.16h0.78v1.5h-1.75L70,12.13L70.43,12h1.07v2.7
	c0,0.14-0.13,0.32-0.38,0.52c-0.07,0.05-0.09,0.1-0.09,0.13c0,0.02,0.2,0.25,0.59,0.68l0.13-0.16c0.09-0.23,0.83-0.98,2.22-2.24
	l-0.09-0.16l-1.75,1.24V12h2.19l-0.04,1.19c0.22-0.02,0.44-0.11,0.64-0.25v-0.43h1.46v3.93c0.18,0,0.39-0.1,0.69-0.3v-3.64h1.49
	v0.43c0.32-0.03,0.56-0.11,0.73-0.25l-0.13-4.76c-0.03,0,0.04-0.05,0.21-0.18c0.14-0.11,0.22-0.19,0.22-0.21
	c-0.23-0.23-0.5-0.47-0.81-0.73c-0.26,0.32-0.41,0.5-0.43,0.56h-3.3l-0.72-0.34v4.83l-0.82-0.77l-0.55,0.65h-0.82v-1.5h1.93
	l0.04-0.09l-0.9-0.77l-0.47,0.59h-1.89c0.05-0.14,0.15-0.35,0.3-0.64c0.21-0.41,0.35-0.67,0.44-0.81h2.56l0.04-0.09l-0.81-0.78
	l-0.56,0.6h-1.16c0.12-0.25,0.27-0.62,0.47-1.11c0.03-0.12,0.13-0.21,0.31-0.26c0.11-0.02,0.16-0.07,0.16-0.13l-1.06-0.59
	C71.17,8.18,70.57,9.89,69.75,11.32L69.75,11.32z M78.56,7.64v2.18h-1.49V7.64H78.56z M76.38,9.82h-1.46V7.89
	c-0.02-0.18,0.09-0.25,0.34-0.25h1.12V9.82z M78.56,10.03v2.22h-1.49v-2.22H78.56z M76.38,12.25h-1.46v-2.22h1.46V12.25z
	 M84.44,7.64l-0.99-0.47c0.05,1.62,0.07,2.84,0.04,3.64c0,0.88-0.07,1.62-0.18,2.22c-0.2,1.11-0.71,2.09-1.55,2.95l0.09,0.04
	c1.55-0.89,2.31-2.87,2.31-5.95h1.46c0.28,1.51,0.83,2.76,1.62,3.73c-1,0.94-2.47,1.73-4.41,2.36l0.09,0.18
	c2.05-0.6,3.63-1.3,4.71-2.1c0.73,0.66,1.82,1.23,3.24,1.71c0.14-0.39,0.5-0.61,1.07-0.64v-0.09c-1.76-0.2-3.08-0.67-3.93-1.41
	c0.48-0.54,1.13-1.69,1.93-3.42c0-0.03,0.08-0.08,0.25-0.13c0.14-0.05,0.22-0.1,0.22-0.13c-0.26-0.25-0.55-0.53-0.87-0.81
	c-0.02,0-0.1,0.09-0.21,0.25c-0.12,0.21-0.18,0.28-0.18,0.26h-5.01c0.05-0.89,0.1-1.53,0.13-1.93c0.25,0,0.58,0,0.99,0
	c0.39-0.03,0.82-0.05,1.28-0.09c0.89-0.09,1.85-0.19,2.92-0.3c0.57-0.05,0.98-0.04,1.24,0.04c0.05,0.02,0.1,0.02,0.13,0
	c0.08,0-0.08-0.23-0.47-0.69c-0.07-0.09-0.12-0.16-0.18-0.25C87.99,7.21,86.06,7.55,84.44,7.64L84.44,7.64z M89.27,10.07
	c-0.46,1.35-1.01,2.45-1.67,3.34c-0.98-0.98-1.55-2.08-1.72-3.34H89.27z M98.48,6.27c0.28,0.36,0.47,0.87,0.56,1.49
	c0.03,0.26,0.07,0.42,0.13,0.47h-3.34l-0.77-0.59c0,1.42-0.02,2.37-0.04,2.82c0,0.6,0,1.09,0,1.46c-0.03,0.75-0.09,1.36-0.18,1.84
	c-0.25,0.83-0.64,1.56-1.15,2.18l0.08,0.09c0.8-0.68,1.35-1.47,1.63-2.36c0.28-0.73,0.43-2.37,0.43-4.88c-0.03-0.2,0.07-0.3,0.3-0.3
	h7.7l0.04-0.09l-1.06-0.9l-0.52,0.72h-2.87c0.34-0.28,0.5-0.58,0.47-0.9c-0.18-0.34-0.62-0.72-1.37-1.15L98.48,6.27z M100.37,15.77
	h-5.01l0.22,0.38l0.5-0.13h7.84l0.04-0.04l-1.11-0.9l-0.65,0.69h-1.5c0.37-0.8,0.92-2.29,1.63-4.45c0.05-0.18,0.12-0.36,0.21-0.56
	c0-0.09,0.13-0.22,0.38-0.38c0.12-0.07,0.18-0.11,0.18-0.13c-0.03-0.03-0.39-0.28-1.12-0.77C101.56,11.85,101.03,13.94,100.37,15.77
	L100.37,15.77z M98.82,9.6c0.52,1.26,0.73,2.54,0.65,3.86c-0.03,0.34-0.01,0.53,0.04,0.56c0.46,0.05,0.71-0.39,0.77-1.33
	c-0.05-0.46-0.49-1.51-1.33-3.18L98.82,9.6z M96.95,10.59c0.45,1.05,0.68,2.25,0.68,3.55c0,0.41,0.03,0.61,0.09,0.65
	c0.43-0.03,0.62-0.48,0.6-1.37c-0.09-0.55-0.5-1.51-1.25-2.92L96.95,10.59z M111.04,6.48c0.34,0.41,0.53,0.81,0.56,1.24
	c0.02,0.12,0.05,0.18,0.09,0.18h-2.62l0.26,0.3l0.55-0.04h1.63c-0.34,0.58-0.8,1.16-1.37,1.76c-0.26,0.28-0.55,0.43-0.85,0.43h-0.09
	c0.03,0.25,0.15,0.47,0.38,0.64c0,0.03,0.01,0.03,0.04,0c0.66-0.16,2.07-0.33,4.24-0.47c0.02,0.09,0.07,0.22,0.12,0.38
	c0.09,0.21,0.18,0.31,0.26,0.31c0.39-0.18,0.52-0.5,0.34-0.99c-0.25-0.34-0.82-0.75-1.71-1.19l-0.04,0.08
	c0.43,0.41,0.75,0.79,0.94,1.16l-3.68,0.09c0.39-0.35,0.71-0.6,0.94-0.78c0.2-0.16,0.38-0.33,0.56-0.47
	c0.14-0.14,0.31-0.24,0.52-0.3c0.05-0.03,0.1-0.05,0.12-0.09c0-0.02-0.2-0.21-0.59-0.56h3.98l0.04-0.08l-0.9-0.82l-0.73,0.65h-1.89
	c0.21-0.28,0.27-0.53,0.22-0.72c-0.03-0.21-0.44-0.47-1.24-0.82L111.04,6.48z M106.84,7.12c0.43,0.28,0.81,0.77,1.16,1.46
	c0.08,0.14,0.14,0.21,0.16,0.21c0.43-0.18,0.53-0.53,0.31-1.07c-0.07-0.16-0.58-0.43-1.55-0.77L106.84,7.12z M107.22,13.12
	c-0.05,0.22-0.43,0.31-1.11,0.25v0.09c0.59,0.11,0.91,0.28,0.94,0.52c0.02,0.25-0.02,0.67-0.13,1.24c-0.05,0.37-0.08,0.62-0.04,0.77
	c0.23,0.28,0.48,0.36,0.77,0.22c0.03-0.09,0.03-0.42,0-0.99c-0.05-0.8-0.04-1.36,0.04-1.67c0-0.28,0.52-1.97,1.55-5.05l-0.13-0.04
	C107.97,11.28,107.34,12.83,107.22,13.12L107.22,13.12z M105.98,9.39c0.32,0.28,0.61,0.77,0.9,1.46c0.09,0.2,0.14,0.3,0.18,0.3
	c0.36-0.12,0.53-0.42,0.47-0.9c-0.09-0.26-0.57-0.59-1.46-0.99L105.98,9.39z M111.33,16.11c0.28-0.05,0.52-0.19,0.69-0.38v-3.86
	c0-0.02,0.05-0.09,0.16-0.16c0.09-0.07,0.13-0.1,0.13-0.13c0.03-0.03-0.27-0.18-0.9-0.43L111.33,16.11z M113.17,15.21
	c-0.2,0.62,0.27,0.91,1.41,0.85c0.71,0.05,1.17-0.18,1.37-0.68c-0.37-0.12-0.54-0.68-0.52-1.68h-0.16
	c-0.09,1.32-0.32,1.89-0.69,1.72c-0.62,0.02-0.89-0.04-0.77-0.22V12c-0.03-0.03,0.02-0.09,0.16-0.18c0.12-0.08,0.18-0.15,0.18-0.21
	c-0.03-0.03-0.35-0.15-0.99-0.38V15.21z M109.37,14.57c-0.18,0.49-0.66,0.99-1.46,1.5l0.09,0.09c1.65-0.57,2.45-1.92,2.39-4.02
	c-0.02-0.12,0.02-0.22,0.13-0.31c0.09-0.05,0.13-0.11,0.13-0.16c-0.03-0.03-0.34-0.16-0.94-0.38
	C109.68,12.96,109.57,14.06,109.37,14.57L109.37,14.57z M117.8,7.94l0.04,0.13c0.55-0.03,1.28-0.13,2.22-0.31v1.93h-2.14l0.22,0.38
	l0.5-0.12h1.25c-0.55,1.51-1.26,2.98-2.15,4.41l0.09,0.04c0.66-0.78,1.39-1.89,2.18-3.34l-0.08,5.35c0.14-0.02,0.38-0.12,0.72-0.3
	v-4.92c0.37,0.28,0.69,0.7,0.94,1.24c0.05,0.26,0.15,0.3,0.3,0.13c0.21-0.28,0.26-0.53,0.18-0.73c-0.14-0.16-0.61-0.44-1.41-0.81
	V9.95h1.8V9.86l-0.72-0.73l-0.47,0.56h-0.6V7.67c0.75-0.14,1.22-0.2,1.41-0.16c0.11,0,0.18-0.01,0.18-0.04
	c-0.14-0.2-0.37-0.47-0.69-0.81C120.57,7.19,119.31,7.62,117.8,7.94L117.8,7.94z M126.33,6.95c-0.14,0.18-0.22,0.24-0.22,0.22h-2.48
	c-0.03,0.02-0.19-0.04-0.47-0.22l-0.43-0.25v3.98c0.28-0.05,0.5-0.14,0.68-0.26V9.86h2.87v0.52c0.28,0,0.53-0.08,0.72-0.22
	l-0.09-2.49l0.13-0.08c0.18-0.12,0.26-0.19,0.26-0.22c-0.23-0.23-0.49-0.46-0.78-0.68C126.51,6.7,126.44,6.77,126.33,6.95
	L126.33,6.95z M126.28,9.6h-2.87V7.72c0-0.16,0.09-0.26,0.26-0.3h2.61V9.6z M126.62,11.15h-4.58l0.3,0.43l0.56-0.18h1.55v1.84h-2.36
	l0.34,0.38l0.52-0.12h1.5v1.89h-3.39l0.31,0.38l0.59-0.13h6.08V15.6l-0.81-0.68l-0.52,0.47h-1.59V13.5h2.36v-0.09l-0.77-0.72
	l-0.52,0.55h-1.07V11.4h2.78v-0.08l-0.81-0.78L126.62,11.15z"/>
    <path d="M132.11,16.17c0.11-0.24,0.11-0.48,0-0.72c-0.12-0.23-0.35-0.36-0.69-0.38c-0.32,0.02-0.54,0.15-0.65,0.38
	c-0.1,0.24-0.1,0.48,0,0.72c0.11,0.24,0.33,0.36,0.65,0.38C131.76,16.53,131.99,16.41,132.11,16.17L132.11,16.17z M132.09,13.13
	c0.11-0.24,0.11-0.48,0-0.71c-0.12-0.25-0.35-0.37-0.69-0.39c-0.32,0.02-0.54,0.14-0.64,0.39c-0.11,0.23-0.11,0.47,0,0.71
	c0.1,0.24,0.32,0.37,0.64,0.39C131.73,13.5,131.96,13.37,132.09,13.13L132.09,13.13z M136.61,14.96h-0.82v0.25h1.97v-0.25h-0.82
	V8.28h0.02l2.05,6.94h0.28l2.13-6.94h0.02v6.69h-0.84v0.25h2.74v-0.25h-0.83V8.14h0.83V7.89h-2.18l-1.61,5.39h-0.02l-1.55-5.39
	h-2.19v0.25h0.82V14.96z"/>
    <path d="M144.12,14.96v0.25h2.05v-0.25h-0.59v-2.04c0.01-0.44,0.13-0.84,0.38-1.23c0.24-0.38,0.55-0.59,0.93-0.61
	c0.22-0.01,0.39,0.04,0.52,0.16c0.12,0.11,0.18,0.37,0.18,0.76v2.96h-0.57v0.25h2.02v-0.25h-0.59v-3.1c-0.03-0.48-0.2-0.8-0.5-0.93
	c-0.31-0.12-0.57-0.18-0.8-0.16c-0.39,0.01-0.71,0.11-0.95,0.33c-0.24,0.21-0.44,0.48-0.58,0.83h-0.02v-1.16
	c-0.2,0.04-0.41,0.08-0.61,0.09c-0.2,0.02-0.41,0.02-0.61,0.02h-0.23v0.25h0.6v3.84H144.12z M154.03,7.76
	c-0.44,0.39-0.89,0.98-1.33,1.72c-0.44,0.75-0.69,1.65-0.75,2.72c-0.01,0.67,0.11,1.35,0.36,2.04c0.25,0.69,0.58,1.3,1.01,1.85
	c0.42,0.55,0.89,0.94,1.41,1.19l0.04-0.18c0,0.07-0.18-0.1-0.54-0.5c-0.36-0.41-0.72-0.99-1.08-1.75c-0.36-0.76-0.53-1.64-0.52-2.65
	c0.07-1.09,0.27-1.99,0.62-2.71c0.35-0.71,0.69-1.26,1.02-1.63c0.32-0.37,0.49-0.58,0.49-0.64l-0.04-0.08
	C154.69,7.16,154.46,7.35,154.03,7.76L154.03,7.76z"/>
    <path d="M167.69,15.43v-0.3h-0.77V7.09h0.77V6.8h-5.19v0.3h0.8l-1.42,6.44h-0.02l-1.5-6.44h0.69V6.8h-2.26v0.3h0.65l2.01,8.54h0.23
	l1.89-8.53h0.66v8.03h-0.79v0.31L167.69,15.43z M165.06,15.15V7.09l1.01,0.01v8.03L165.06,15.15z M171.63,16.75
	c0.44-0.39,0.89-0.98,1.33-1.72c0.44-0.75,0.69-1.64,0.75-2.71c0.01-0.67-0.11-1.35-0.36-2.04c-0.25-0.69-0.58-1.32-1.01-1.86
	c-0.42-0.55-0.89-0.94-1.41-1.19l-0.04,0.18c0-0.07,0.18,0.1,0.54,0.5c0.36,0.41,0.72,1,1.08,1.76c0.36,0.76,0.53,1.64,0.52,2.65
	c-0.07,1.08-0.27,1.98-0.62,2.7c-0.35,0.72-0.69,1.26-1.01,1.63c-0.33,0.37-0.5,0.58-0.5,0.64l0.04,0.09
	C170.96,17.35,171.19,17.15,171.63,16.75L171.63,16.75z"/>
    <path d="M183.77,7.1h-0.62v0.19h1.49V7.1h-0.62V2.06h0.02l1.55,5.23h0.21l1.6-5.23h0.02V7.1h-0.64v0.19h2.07V7.1h-0.63V1.96h0.63
	V1.77h-1.65l-1.22,4.07h-0.02l-1.17-4.07h-1.65v0.19h0.62V7.1z M189.44,7.1v0.19h1.55V7.1h-0.45V5.56c0.01-0.33,0.1-0.64,0.29-0.93
	c0.18-0.29,0.41-0.45,0.7-0.46c0.17-0.01,0.3,0.03,0.39,0.12c0.09,0.08,0.13,0.28,0.13,0.57V7.1h-0.43v0.19h1.52V7.1h-0.45V4.76
	c-0.02-0.36-0.15-0.6-0.38-0.7c-0.23-0.09-0.43-0.13-0.6-0.12c-0.3,0.01-0.54,0.08-0.72,0.25c-0.18,0.16-0.33,0.36-0.44,0.63h-0.02
	V3.93c-0.15,0.03-0.31,0.06-0.46,0.07c-0.15,0.02-0.31,0.02-0.46,0.02h-0.17v0.19h0.45V7.1H189.44z"/>
    <path d="M196.11,1.67c-0.33,0.3-0.67,0.74-1,1.3s-0.52,1.25-0.56,2.05c-0.01,0.5,0.08,1.02,0.27,1.54c0.19,0.52,0.44,0.98,0.76,1.4
	c0.31,0.41,0.67,0.71,1.07,0.9l0.03-0.13c0,0.05-0.13-0.07-0.41-0.38c-0.27-0.31-0.55-0.74-0.82-1.32c-0.27-0.57-0.4-1.24-0.39-2
	c0.05-0.82,0.21-1.5,0.47-2.04s0.52-0.95,0.77-1.23c0.24-0.28,0.37-0.44,0.37-0.48l-0.03-0.06C196.61,1.21,196.44,1.36,196.11,1.67
	L196.11,1.67z M204.9,7.53V7.3h-0.71V1.23h0.71V1l-4.3,0.01v0.22h0.71V7.3h-0.71v0.23H204.9z M202.12,7.29V1.24l1.27-0.01V7.3
	L202.12,7.29z"/>
    <path d="M208.67,8.45c0.33-0.3,0.67-0.74,1-1.3s0.52-1.24,0.56-2.04c0.01-0.5-0.08-1.02-0.27-1.54c-0.19-0.52-0.44-0.99-0.76-1.41
	c-0.31-0.41-0.67-0.71-1.07-0.9L208.1,1.4c0-0.05,0.13,0.07,0.41,0.38c0.27,0.31,0.55,0.75,0.82,1.33c0.27,0.57,0.4,1.24,0.39,2
	c-0.05,0.82-0.21,1.5-0.47,2.03c-0.26,0.55-0.52,0.95-0.76,1.23c-0.25,0.28-0.38,0.44-0.38,0.48l0.03,0.07
	C208.16,8.9,208.34,8.76,208.67,8.45L208.67,8.45z"/>
    <path d="M206.58,11.78h8.99c-0.24,0.28-0.44,0.58-0.6,0.89c-0.16,0.32-0.24,0.67-0.23,1.04c0.35-0.48,0.77-0.9,1.24-1.27
	c0.48-0.36,1.01-0.65,1.57-0.85c-0.56-0.21-1.07-0.49-1.56-0.85c-0.47-0.37-0.89-0.79-1.25-1.27c0,0.36,0.08,0.71,0.23,1.08
	c0.15,0.36,0.35,0.66,0.6,0.89h-8.99V11.78z"/>
    <path d="M220.08,14.96h-0.82v0.25h1.97v-0.25h-0.82V8.28h0.02l2.05,6.94h0.28l2.13-6.94h0.02v6.69h-0.84v0.25h2.74v-0.25h-0.83V8.14
	h0.83V7.89h-2.18l-1.61,5.39h-0.02l-1.55-5.39h-2.19v0.25h0.82V14.96z M227.59,14.96v0.25h2.05v-0.25h-0.59v-2.04
	c0.01-0.44,0.13-0.84,0.38-1.23c0.24-0.38,0.55-0.59,0.93-0.61c0.22-0.01,0.39,0.04,0.52,0.16c0.12,0.11,0.18,0.37,0.18,0.76v2.96
	h-0.57v0.25h2.02v-0.25h-0.59v-3.1c-0.03-0.48-0.2-0.8-0.5-0.93c-0.31-0.12-0.57-0.18-0.8-0.16c-0.39,0.01-0.71,0.11-0.95,0.33
	c-0.24,0.21-0.44,0.48-0.58,0.83h-0.02v-1.16c-0.2,0.04-0.41,0.08-0.61,0.09c-0.2,0.02-0.41,0.02-0.61,0.02h-0.23v0.25h0.6v3.84
	H227.59z"/>
    <path d="M237.59,7.76c-0.44,0.39-0.89,0.98-1.33,1.72c-0.44,0.75-0.69,1.65-0.75,2.72c-0.01,0.67,0.11,1.35,0.36,2.04
	c0.25,0.69,0.58,1.3,1.01,1.85c0.42,0.55,0.89,0.94,1.41,1.19l0.04-0.18c0,0.07-0.18-0.1-0.54-0.5c-0.36-0.41-0.72-0.99-1.08-1.75
	c-0.36-0.76-0.53-1.64-0.52-2.65c0.07-1.09,0.27-1.99,0.62-2.71c0.35-0.71,0.69-1.26,1.02-1.63c0.32-0.37,0.49-0.58,0.49-0.64
	l-0.04-0.08C238.26,7.16,238.03,7.35,237.59,7.76L237.59,7.76z M247.11,6.76v0.31h1.01l-1.79,6.49h-0.02l-1.85-6.49h0.85V6.76h-2.78
	v0.31h0.8l2.47,8.58h0.28l2.35-8.58h0.82v8.09h-0.94v0.29h2.96v-0.29h-0.94V7.07h0.94V6.76H247.11z"/>
    <path d="M255.31,16.75c0.44-0.39,0.89-0.98,1.33-1.72c0.44-0.75,0.69-1.64,0.75-2.71c0.01-0.67-0.11-1.35-0.36-2.04
	c-0.25-0.69-0.58-1.32-1.01-1.86c-0.42-0.55-0.89-0.94-1.41-1.19l-0.04,0.18c0-0.07,0.18,0.1,0.54,0.5c0.36,0.41,0.72,1,1.09,1.76
	c0.36,0.76,0.53,1.64,0.52,2.65c-0.07,1.08-0.27,1.98-0.62,2.7c-0.35,0.72-0.69,1.26-1.01,1.63c-0.33,0.37-0.5,0.58-0.5,0.64
	l0.04,0.09C254.64,17.35,254.87,17.15,255.31,16.75L255.31,16.75z"/>
    <path d="M267.44,7.1h-0.62v0.19h1.49V7.1h-0.62V2.06h0.02l1.55,5.23h0.21l1.6-5.23h0.02V7.1h-0.64v0.19h2.07V7.1h-0.63V1.96h0.63
	V1.77h-1.65l-1.22,4.07h-0.02l-1.17-4.07h-1.65v0.19h0.62V7.1z M273.11,7.1v0.19h1.55V7.1h-0.45V5.56c0.01-0.33,0.1-0.64,0.29-0.93
	c0.18-0.29,0.41-0.45,0.7-0.46c0.17-0.01,0.3,0.03,0.39,0.12c0.09,0.08,0.13,0.28,0.13,0.57V7.1h-0.43v0.19h1.52V7.1h-0.45V4.76
	c-0.02-0.36-0.15-0.6-0.38-0.7c-0.23-0.09-0.43-0.13-0.6-0.12c-0.3,0.01-0.54,0.08-0.72,0.25c-0.18,0.16-0.33,0.36-0.44,0.63h-0.02
	V3.93c-0.15,0.03-0.31,0.06-0.46,0.07c-0.15,0.02-0.31,0.02-0.46,0.02h-0.17v0.19h0.45V7.1H273.11z"/>
    <path d="M279.78,1.67c-0.33,0.3-0.67,0.74-1,1.3s-0.52,1.25-0.56,2.05c-0.01,0.5,0.08,1.02,0.27,1.54s0.44,0.98,0.76,1.4
	c0.31,0.41,0.67,0.71,1.07,0.9l0.03-0.13c0,0.05-0.13-0.07-0.41-0.38c-0.27-0.31-0.55-0.74-0.82-1.32c-0.27-0.57-0.4-1.24-0.39-2
	c0.05-0.82,0.21-1.5,0.47-2.04s0.52-0.95,0.77-1.23c0.24-0.28,0.37-0.44,0.37-0.48l-0.03-0.06C280.29,1.21,280.11,1.36,279.78,1.67
	L279.78,1.67z M288.57,7.53V7.3h-0.71V1.23h0.71V1l-4.3,0.01v0.22h0.71V7.3h-0.71v0.23H288.57z M285.78,7.29V1.24l1.27-0.01V7.3
	L285.78,7.29z"/>
    <path d="M292.34,8.45c0.33-0.3,0.67-0.74,1-1.3c0.33-0.56,0.52-1.24,0.56-2.04c0.01-0.5-0.08-1.02-0.27-1.54
	c-0.19-0.52-0.44-0.99-0.76-1.41c-0.31-0.41-0.67-0.71-1.07-0.9l-0.03,0.13c0-0.05,0.13,0.07,0.41,0.38
	c0.27,0.31,0.55,0.75,0.82,1.33c0.27,0.57,0.4,1.24,0.39,2c-0.05,0.82-0.21,1.5-0.47,2.03c-0.26,0.55-0.52,0.95-0.76,1.23
	c-0.25,0.28-0.38,0.44-0.38,0.48l0.03,0.07C291.83,8.9,292.01,8.76,292.34,8.45L292.34,8.45z"/>
    <path d="M290.25,11.78h8.99c-0.24,0.28-0.44,0.58-0.6,0.89c-0.16,0.32-0.24,0.67-0.23,1.04c0.35-0.48,0.77-0.9,1.24-1.27
	c0.48-0.36,1.01-0.65,1.57-0.85c-0.56-0.21-1.07-0.49-1.56-0.85c-0.47-0.37-0.89-0.79-1.25-1.27c0,0.36,0.08,0.71,0.23,1.08
	c0.15,0.36,0.35,0.66,0.6,0.89h-8.99V11.78z"/>
    <path d="M303.75,14.96h-0.82v0.25h1.97v-0.25h-0.82V8.28h0.02l2.05,6.94h0.28l2.13-6.94h0.02v6.69h-0.84v0.25h2.74v-0.25h-0.83V8.14
	h0.83V7.89h-2.18l-1.61,5.39h-0.02l-1.55-5.39h-2.19v0.25h0.82V14.96z M311.26,14.96v0.25h2.05v-0.25h-0.59v-2.04
	c0.01-0.44,0.13-0.84,0.38-1.23c0.24-0.38,0.55-0.59,0.93-0.61c0.22-0.01,0.39,0.04,0.52,0.16c0.12,0.11,0.18,0.37,0.18,0.76v2.96
	h-0.57v0.25h2.02v-0.25h-0.59v-3.1c-0.03-0.48-0.2-0.8-0.5-0.93c-0.31-0.12-0.57-0.18-0.8-0.16c-0.39,0.01-0.71,0.11-0.95,0.33
	c-0.24,0.21-0.44,0.48-0.58,0.83h-0.02v-1.16c-0.2,0.04-0.41,0.08-0.61,0.09c-0.2,0.02-0.41,0.02-0.61,0.02h-0.23v0.25h0.6v3.84
	H311.26z"/>
    <path d="M321.26,7.76c-0.44,0.39-0.89,0.98-1.33,1.72c-0.44,0.75-0.69,1.65-0.75,2.72c-0.01,0.67,0.11,1.35,0.36,2.04
	c0.25,0.69,0.58,1.3,1.01,1.85c0.42,0.55,0.89,0.94,1.41,1.19l0.04-0.18c0,0.07-0.18-0.1-0.54-0.5c-0.36-0.41-0.72-0.99-1.08-1.75
	c-0.36-0.76-0.53-1.64-0.52-2.65c0.07-1.09,0.27-1.99,0.62-2.71c0.35-0.71,0.69-1.26,1.02-1.63c0.32-0.37,0.49-0.58,0.49-0.64
	l-0.04-0.08C321.93,7.16,321.7,7.35,321.26,7.76L321.26,7.76z M326.24,6.76v0.31h0.94v8.1h-0.94v0.28h2.96v-0.28h-0.95v-8.1h0.82
	l2.47,8.59h0.27l2.33-8.59h0.78V6.76h-2.08v0.31h1l-1.78,6.5h-0.02l-1.85-6.5h0.87V6.76H326.24z"/>
    <path d="M338.98,16.75c0.44-0.39,0.89-0.98,1.33-1.72s0.69-1.64,0.75-2.71c0.01-0.67-0.11-1.35-0.36-2.04
	c-0.25-0.69-0.58-1.32-1.01-1.86c-0.42-0.55-0.89-0.94-1.41-1.19l-0.04,0.18c0-0.07,0.18,0.1,0.54,0.5c0.36,0.41,0.72,1,1.08,1.76
	c0.36,0.76,0.53,1.64,0.52,2.65c-0.07,1.08-0.27,1.98-0.62,2.7c-0.35,0.72-0.69,1.26-1.01,1.63c-0.33,0.37-0.5,0.58-0.5,0.64
	l0.04,0.09C338.31,17.35,338.54,17.15,338.98,16.75L338.98,16.75z"/>
    <path d="M351.11,7.1h-0.62v0.19h1.49V7.1h-0.62V2.06h0.02l1.55,5.23h0.21l1.6-5.23h0.02V7.1h-0.64v0.19h2.07V7.1h-0.63V1.96h0.63
	V1.77h-1.65l-1.22,4.07h-0.02l-1.17-4.07h-1.65v0.19h0.62V7.1z M356.78,7.1v0.19h1.55V7.1h-0.45V5.56c0.01-0.33,0.1-0.64,0.29-0.93
	c0.18-0.29,0.41-0.45,0.7-0.46c0.17-0.01,0.3,0.03,0.39,0.12c0.09,0.08,0.13,0.28,0.13,0.57V7.1h-0.43v0.19h1.52V7.1h-0.45V4.76
	c-0.02-0.36-0.15-0.6-0.38-0.7c-0.23-0.09-0.43-0.13-0.6-0.12c-0.3,0.01-0.54,0.08-0.72,0.25c-0.18,0.16-0.33,0.36-0.44,0.63h-0.02
	V3.93c-0.15,0.03-0.31,0.06-0.46,0.07c-0.15,0.02-0.31,0.02-0.46,0.02h-0.17v0.19h0.45V7.1H356.78z"/>
    <path d="M363.45,1.67c-0.33,0.3-0.67,0.74-1,1.3c-0.33,0.56-0.52,1.25-0.56,2.05c-0.01,0.5,0.08,1.02,0.27,1.54s0.44,0.98,0.76,1.4
	c0.31,0.41,0.67,0.71,1.07,0.9l0.03-0.13c0,0.05-0.13-0.07-0.41-0.38c-0.27-0.31-0.55-0.74-0.82-1.32c-0.27-0.57-0.4-1.24-0.39-2
	c0.05-0.82,0.21-1.5,0.47-2.04s0.52-0.95,0.77-1.23c0.24-0.28,0.37-0.44,0.37-0.48l-0.03-0.06C363.96,1.21,363.78,1.36,363.45,1.67
	L363.45,1.67z M372.25,7.53V7.3h-0.71V1.23h0.71V1l-4.3,0.01v0.22h0.71V7.3h-0.71v0.23H372.25z M369.46,7.29V1.24l1.27-0.01V7.3
	L369.46,7.29z"/>
    <path d="M376.01,8.45c0.33-0.3,0.67-0.74,1-1.3c0.33-0.56,0.52-1.24,0.56-2.04c0.01-0.5-0.08-1.02-0.27-1.54
	c-0.19-0.52-0.44-0.99-0.76-1.41c-0.31-0.41-0.67-0.71-1.07-0.9l-0.03,0.13c0-0.05,0.13,0.07,0.41,0.38s0.55,0.75,0.82,1.33
	c0.27,0.57,0.4,1.24,0.39,2c-0.05,0.82-0.21,1.5-0.47,2.03c-0.26,0.55-0.52,0.95-0.76,1.23c-0.25,0.28-0.38,0.44-0.38,0.48
	l0.03,0.07C375.5,8.9,375.68,8.76,376.01,8.45L376.01,8.45z"/>
    <path d="M373.92,11.78h8.99c-0.24,0.28-0.44,0.58-0.6,0.89c-0.16,0.32-0.24,0.67-0.23,1.04c0.35-0.48,0.77-0.9,1.24-1.27
	c0.48-0.36,1.01-0.65,1.57-0.85c-0.56-0.21-1.07-0.49-1.56-0.85c-0.47-0.37-0.89-0.79-1.25-1.27c0,0.36,0.08,0.71,0.23,1.08
	c0.15,0.36,0.35,0.66,0.6,0.89h-8.99V11.78z"/>
    <path d="M387.42,14.96h-0.82v0.25h1.97v-0.25h-0.82V8.28h0.02l2.05,6.94h0.28l2.13-6.94h0.02v6.69h-0.84v0.25h2.74v-0.25h-0.83V8.14
	h0.83V7.89h-2.18l-1.61,5.39h-0.02l-1.55-5.39h-2.19v0.25h0.82V14.96z M394.92,14.96v0.25h2.05v-0.25h-0.59v-2.04
	c0.01-0.44,0.13-0.84,0.38-1.23c0.24-0.38,0.55-0.59,0.93-0.61c0.22-0.01,0.39,0.04,0.52,0.16c0.12,0.11,0.18,0.37,0.18,0.76v2.96
	h-0.57v0.25h2.02v-0.25h-0.59v-3.1c-0.03-0.48-0.2-0.8-0.5-0.93c-0.31-0.12-0.57-0.18-0.8-0.16c-0.39,0.01-0.71,0.11-0.95,0.33
	c-0.24,0.21-0.44,0.48-0.58,0.83h-0.02v-1.16c-0.2,0.04-0.41,0.08-0.61,0.09c-0.2,0.02-0.41,0.02-0.61,0.02h-0.23v0.25h0.6v3.84
	H394.92z"/>
    <path d="M404.93,7.76c-0.44,0.39-0.89,0.98-1.33,1.72s-0.69,1.65-0.75,2.72c-0.01,0.67,0.11,1.35,0.36,2.04
	c0.25,0.69,0.58,1.3,1.01,1.85c0.42,0.55,0.89,0.94,1.41,1.19l0.04-0.18c0,0.07-0.18-0.1-0.54-0.5c-0.36-0.41-0.72-0.99-1.08-1.75
	c-0.36-0.76-0.53-1.64-0.52-2.65c0.07-1.09,0.27-1.99,0.62-2.71c0.35-0.71,0.69-1.26,1.02-1.63c0.32-0.37,0.49-0.58,0.49-0.64
	l-0.04-0.08C405.6,7.16,405.37,7.35,404.93,7.76L404.93,7.76z M413.72,7.22v7.97h-1.23V7.22H413.72z M416,7.22v7.97h-1.23V7.22H416z
	 M410.47,6.93v0.3h0.95v7.97h-0.95v0.3h7.56v-0.3h-0.95V7.22h0.95v-0.3H410.47z"/>
    <path d="M422.65,16.75c0.44-0.39,0.89-0.98,1.33-1.72s0.69-1.64,0.75-2.71c0.01-0.67-0.11-1.35-0.36-2.04
	c-0.25-0.69-0.58-1.32-1.01-1.86c-0.42-0.55-0.89-0.94-1.41-1.19l-0.04,0.18c0-0.07,0.18,0.1,0.54,0.5c0.36,0.41,0.72,1,1.09,1.76
	c0.36,0.76,0.53,1.64,0.52,2.65c-0.07,1.08-0.27,1.98-0.62,2.7c-0.35,0.72-0.69,1.26-1.01,1.63c-0.33,0.37-0.5,0.58-0.5,0.64
	l0.04,0.09C421.98,17.35,422.21,17.15,422.65,16.75L422.65,16.75z"/>
    <path d="M13.75,23.45l-0.28,0.25c-0.2-0.14-0.39-0.25-0.57-0.32c-0.19-0.08-0.41-0.12-0.64-0.12c-0.4,0.01-0.78,0.13-1.15,0.38
	c-0.36,0.24-0.67,0.58-0.9,1.01c-0.24,0.43-0.36,0.92-0.37,1.46c0,0.82,0.21,1.5,0.62,2.05c0.41,0.55,1,0.84,1.77,0.86
	c0.47,0.02,0.9-0.14,1.3-0.45l0.23,0.34h0.22v-1.5h-0.2c-0.11,0.37-0.29,0.7-0.54,0.97c-0.26,0.27-0.59,0.41-0.98,0.43
	c-0.64-0.02-1.04-0.25-1.23-0.69c-0.18-0.45-0.26-1.03-0.25-1.75c0-0.16,0-0.37,0.02-0.64s0.04-0.55,0.09-0.84s0.12-0.54,0.23-0.74
	c0.09-0.17,0.22-0.31,0.41-0.45c0.19-0.13,0.42-0.21,0.69-0.21c0.43,0.01,0.76,0.15,1,0.41c0.23,0.26,0.39,0.6,0.47,1h0.19v-1.41
	H13.75z"/>
    <path d="M16.88,30.2c-0.09,0.14-0.16,0.23-0.22,0.27c-0.07,0.03-0.14,0.05-0.22,0.04h-1.11l0.78-0.82c0.11-0.11,0.24-0.27,0.37-0.47
	c0.14-0.2,0.21-0.42,0.22-0.67c-0.01-0.26-0.1-0.47-0.26-0.61c-0.17-0.14-0.36-0.22-0.58-0.22c-0.21,0-0.41,0.06-0.6,0.2
	c-0.18,0.14-0.32,0.38-0.39,0.73l0.1,0.02c0.05-0.14,0.12-0.27,0.21-0.4c0.09-0.13,0.25-0.2,0.45-0.21
	c0.27,0.01,0.45,0.09,0.54,0.24c0.09,0.15,0.13,0.29,0.13,0.42c0,0.36-0.2,0.76-0.61,1.2l-0.83,0.88v0.06h1.82l0.26-0.64L16.88,30.2
	z"/>
    <path d="M19.75,28.13c-0.21-0.46-0.3-1.12-0.29-1.98c-0.01-0.86,0.08-1.52,0.29-1.99c0.2-0.46,0.58-0.7,1.14-0.7s0.94,0.24,1.14,0.7
	c0.21,0.47,0.3,1.13,0.29,1.99c0.01,0.86-0.08,1.52-0.29,1.98c-0.2,0.47-0.58,0.71-1.14,0.71S19.95,28.6,19.75,28.13L19.75,28.13z
	 M22.14,28.6c0.36-0.27,0.63-0.63,0.83-1.07c0.2-0.44,0.3-0.9,0.3-1.4s-0.1-0.97-0.3-1.4c-0.2-0.44-0.47-0.79-0.83-1.06
	c-0.36-0.27-0.77-0.41-1.25-0.42c-0.48,0.01-0.89,0.15-1.25,0.42c-0.36,0.27-0.63,0.62-0.83,1.06c-0.2,0.43-0.3,0.9-0.3,1.4
	s0.1,0.96,0.3,1.4c0.2,0.44,0.47,0.79,0.83,1.07c0.36,0.27,0.77,0.41,1.25,0.42C21.37,29.02,21.78,28.87,22.14,28.6L22.14,28.6z"/>
    <path d="M25.55,29.79v-2.07h-0.2l-1.46,2.07v0.3h1.31v0.78h0.36v-0.78h0.48v-0.3H25.55z M24.07,29.79l1.11-1.58h0.01v1.58H24.07z"/>
    <path d="M26.41,34.74h8.99c-0.24,0.28-0.44,0.58-0.6,0.89c-0.16,0.32-0.24,0.67-0.23,1.04c0.35-0.48,0.77-0.9,1.24-1.27
	c0.48-0.36,1.01-0.65,1.57-0.85c-0.56-0.21-1.07-0.49-1.56-0.85c-0.47-0.37-0.89-0.79-1.25-1.27c0,0.36,0.08,0.71,0.23,1.08
	c0.15,0.36,0.35,0.66,0.6,0.89h-8.99V34.74z"/>
    <path d="M38.77,37.92h-0.82v0.25h1.97v-0.25H39.1v-6.69h0.02l2.05,6.94h0.28l2.13-6.94h0.02v6.69h-0.84v0.25h2.74v-0.25h-0.83V31.1
	h0.83v-0.25h-2.18l-1.61,5.39h-0.02l-1.55-5.39h-2.19v0.25h0.82V37.92z M46.28,37.92v0.25h2.05v-0.25h-0.59v-2.04
	c0.01-0.44,0.13-0.84,0.38-1.23c0.24-0.38,0.55-0.59,0.93-0.61c0.22-0.01,0.39,0.04,0.52,0.16c0.12,0.11,0.18,0.37,0.18,0.76v2.96
	h-0.57v0.25h2.02v-0.25H50.6v-3.1c-0.03-0.48-0.2-0.8-0.5-0.93c-0.31-0.12-0.57-0.18-0.8-0.16c-0.39,0.01-0.71,0.11-0.95,0.33
	c-0.24,0.21-0.44,0.48-0.58,0.83h-0.02v-1.16c-0.2,0.04-0.41,0.08-0.61,0.09c-0.2,0.02-0.41,0.02-0.61,0.02h-0.23v0.25h0.6v3.84
	H46.28z"/>
    <path d="M54.81,28.57v4.59H54.1v-4.59H54.81z M56.13,28.57v4.59h-0.71v-4.59H56.13z M52.94,28.4v0.17h0.55v4.59h-0.55v0.17h4.36
	v-0.17h-0.55v-4.59h0.55V28.4H52.94z"/>
    <path d="M62.7,30.72c-0.44,0.39-0.89,0.98-1.33,1.72c-0.44,0.75-0.69,1.65-0.75,2.72c-0.01,0.67,0.11,1.35,0.36,2.04
	c0.25,0.69,0.58,1.3,1.01,1.85c0.42,0.55,0.89,0.94,1.41,1.19l0.04-0.18c0,0.07-0.18-0.1-0.54-0.5c-0.36-0.41-0.72-0.99-1.08-1.75
	c-0.36-0.76-0.53-1.64-0.52-2.65c0.07-1.09,0.27-1.99,0.62-2.71c0.35-0.71,0.69-1.26,1.02-1.63c0.32-0.37,0.49-0.58,0.49-0.64
	l-0.04-0.08C63.37,30.12,63.14,30.32,62.7,30.72L62.7,30.72z M71.62,30.94l-0.37,0.33c-0.26-0.19-0.52-0.33-0.76-0.43
	c-0.25-0.11-0.54-0.15-0.85-0.15c-0.53,0.01-1.03,0.18-1.52,0.5c-0.48,0.32-0.89,0.77-1.19,1.34c-0.32,0.57-0.48,1.22-0.49,1.94
	c0,1.09,0.27,1.98,0.82,2.72s1.33,1.12,2.35,1.14c0.62,0.02,1.19-0.19,1.72-0.6l0.31,0.45h0.3v-1.99h-0.26
	c-0.14,0.49-0.38,0.93-0.71,1.28c-0.34,0.36-0.78,0.55-1.3,0.57c-0.84-0.02-1.38-0.33-1.63-0.92c-0.24-0.59-0.35-1.37-0.33-2.32
	c0-0.21,0-0.49,0.02-0.85c0.02-0.36,0.05-0.73,0.12-1.12c0.07-0.38,0.16-0.71,0.31-0.99c0.12-0.22,0.3-0.42,0.55-0.6
	c0.25-0.18,0.56-0.27,0.91-0.28c0.57,0.01,1.01,0.2,1.33,0.54c0.31,0.35,0.52,0.79,0.62,1.33h0.25v-1.86H71.62z"/>
    <path d="M75.77,39.82c-0.12,0.19-0.22,0.31-0.3,0.36c-0.09,0.04-0.18,0.06-0.3,0.06h-1.51l1.06-1.11c0.15-0.15,0.32-0.36,0.51-0.63
	c0.18-0.27,0.28-0.57,0.3-0.91c-0.01-0.35-0.13-0.63-0.35-0.83c-0.23-0.2-0.49-0.3-0.79-0.3c-0.28-0.01-0.56,0.08-0.81,0.27
	c-0.25,0.19-0.43,0.52-0.53,0.99l0.13,0.03c0.06-0.18,0.16-0.36,0.29-0.54c0.13-0.18,0.33-0.27,0.61-0.28
	c0.36,0.02,0.61,0.13,0.73,0.33c0.12,0.2,0.18,0.4,0.17,0.57c0,0.49-0.27,1.03-0.82,1.63l-1.12,1.19v0.08h2.46l0.35-0.87
	L75.77,39.82z"/>
    <path d="M79.33,37.14c-0.27-0.61-0.39-1.49-0.38-2.63c-0.01-1.14,0.11-2.02,0.38-2.64c0.26-0.61,0.77-0.93,1.51-0.93
	c0.75,0,1.25,0.32,1.51,0.93c0.27,0.62,0.39,1.5,0.38,2.64c0.01,1.14-0.11,2.02-0.38,2.63c-0.26,0.62-0.77,0.94-1.51,0.94
	C80.1,38.09,79.59,37.77,79.33,37.14L79.33,37.14z M82.5,37.77c0.47-0.36,0.83-0.83,1.1-1.41c0.26-0.58,0.39-1.19,0.39-1.85
	s-0.13-1.28-0.39-1.85c-0.26-0.58-0.62-1.04-1.1-1.4c-0.47-0.36-1.02-0.55-1.65-0.56c-0.64,0.01-1.18,0.2-1.65,0.56
	s-0.83,0.82-1.1,1.4c-0.26,0.57-0.39,1.19-0.39,1.85s0.13,1.27,0.39,1.85c0.26,0.58,0.62,1.05,1.1,1.41
	c0.47,0.36,1.02,0.55,1.65,0.56C81.48,38.32,82.03,38.13,82.5,37.77L82.5,37.77z"/>
    <path d="M86.98,39.26v-2.81H86.7l-1.98,2.81v0.4h1.77v1.05h0.49v-1.05h0.64v-0.4H86.98z M84.97,39.26l1.5-2.15h0.01v2.15H84.97z"/>
    <path d="M91.07,39.71c0.44-0.39,0.89-0.98,1.33-1.72c0.44-0.75,0.69-1.64,0.75-2.71c0.01-0.67-0.11-1.35-0.36-2.04
	s-0.58-1.32-1.01-1.86c-0.42-0.55-0.89-0.94-1.41-1.19l-0.04,0.18c0-0.07,0.18,0.1,0.54,0.5c0.36,0.41,0.72,1,1.08,1.76
	c0.36,0.76,0.53,1.64,0.52,2.65c-0.07,1.08-0.27,1.98-0.62,2.7c-0.35,0.72-0.69,1.26-1.01,1.63c-0.33,0.37-0.5,0.58-0.5,0.64
	l0.04,0.09C90.4,40.31,90.63,40.11,91.07,39.71L91.07,39.71z"/>
    <path d="M96.95,31.11c0.12,0.02,0.23,0.06,0.33,0.12c0.2,0.11,0.33,0.26,0.39,0.44c0.06,0.17,0.09,0.31,0.09,0.4
	c0,0.25-0.07,0.47-0.2,0.66c-0.14,0.2-0.35,0.3-0.64,0.31c-0.18-0.01-0.34-0.08-0.49-0.18c-0.13-0.11-0.28-0.16-0.42-0.18
	c-0.06,0-0.11,0.01-0.16,0.04c-0.06,0.03-0.08,0.09-0.09,0.18c0.02,0.16,0.12,0.25,0.29,0.3c0.18,0.04,0.32,0.06,0.41,0.06
	c0.51,0,0.92-0.13,1.25-0.39c0.32-0.25,0.49-0.61,0.5-1.06c-0.01-0.4-0.11-0.69-0.3-0.85c-0.18-0.16-0.35-0.27-0.5-0.32
	c0.4-0.26,0.6-0.56,0.59-0.88c0-0.09-0.03-0.2-0.08-0.33s-0.15-0.25-0.29-0.35c-0.15-0.1-0.35-0.16-0.62-0.16
	c-0.22-0.01-0.45,0.06-0.68,0.2c-0.23,0.14-0.42,0.42-0.56,0.82l0.09,0.03c0.04-0.11,0.14-0.24,0.28-0.4
	c0.15-0.16,0.37-0.25,0.65-0.27c0.23,0.01,0.41,0.08,0.52,0.2c0.11,0.13,0.17,0.28,0.17,0.45c-0.01,0.28-0.11,0.51-0.31,0.68
	c-0.2,0.17-0.44,0.3-0.74,0.39l0.01,0.08C96.67,31.08,96.84,31.09,96.95,31.11L96.95,31.11z"/>
    <path d="M95.94,40.72h0.45l0.26-1.04c0.09-0.37,0.22-0.68,0.4-0.93c0.18-0.25,0.39-0.39,0.64-0.4c0.07,0,0.13,0.01,0.2,0.04
	c0.06,0.03,0.09,0.09,0.09,0.2c-0.01,0.08-0.04,0.25-0.11,0.49c-0.08,0.24-0.15,0.5-0.21,0.76c-0.08,0.27-0.11,0.47-0.12,0.61
	c0.01,0.12,0.04,0.2,0.12,0.26c0.08,0.05,0.16,0.08,0.28,0.08c0.25-0.01,0.44-0.11,0.58-0.3c0.14-0.18,0.25-0.39,0.33-0.61
	l-0.12-0.05c-0.04,0.13-0.12,0.29-0.22,0.47c-0.09,0.18-0.22,0.28-0.37,0.3c-0.04,0-0.08-0.01-0.11-0.03
	c-0.04-0.02-0.06-0.05-0.06-0.1c0.01-0.04,0.04-0.18,0.11-0.44c0.08-0.26,0.15-0.53,0.22-0.8c0.07-0.28,0.11-0.45,0.11-0.54
	c-0.01-0.2-0.06-0.34-0.16-0.42c-0.11-0.08-0.23-0.11-0.4-0.11c-0.15,0.01-0.32,0.06-0.5,0.16c-0.18,0.1-0.32,0.24-0.44,0.42
	l-0.01-0.01l0.15-0.57c-0.13,0.01-0.28,0.03-0.45,0.04c-0.17,0.01-0.3,0.02-0.4,0.02h-0.12l-0.04,0.15h0.51L95.94,40.72z"/>
    <path d="M103.67,31.45h-2.93v0.37h2.93V31.45z M107.93,32.28c-0.12,0.19-0.22,0.31-0.3,0.36c-0.09,0.04-0.18,0.06-0.3,0.06h-1.51
	l1.06-1.11c0.15-0.15,0.32-0.36,0.51-0.63c0.18-0.27,0.28-0.57,0.3-0.91c-0.01-0.35-0.13-0.63-0.35-0.83
	c-0.23-0.2-0.49-0.3-0.79-0.3c-0.28-0.01-0.56,0.08-0.81,0.27c-0.25,0.19-0.43,0.52-0.53,0.99l0.13,0.03
	c0.06-0.18,0.16-0.36,0.29-0.54c0.13-0.18,0.33-0.27,0.61-0.28c0.36,0.02,0.61,0.13,0.73,0.33c0.12,0.2,0.18,0.4,0.17,0.57
	c0,0.49-0.27,1.03-0.82,1.63l-1.12,1.19v0.08h2.46l0.35-0.87L107.93,32.28z"/>
    <path d="M108.56,33.17h0.45l0.26-1.04c0.09-0.37,0.22-0.68,0.4-0.93c0.18-0.25,0.39-0.39,0.64-0.4c0.07,0,0.13,0.01,0.2,0.04
	c0.06,0.03,0.09,0.09,0.09,0.2c-0.01,0.08-0.04,0.25-0.11,0.49c-0.08,0.24-0.15,0.5-0.21,0.76c-0.08,0.27-0.11,0.47-0.12,0.61
	c0.01,0.12,0.04,0.2,0.12,0.26c0.08,0.05,0.16,0.08,0.28,0.08c0.25-0.01,0.44-0.11,0.58-0.3c0.14-0.18,0.25-0.39,0.33-0.61
	l-0.12-0.05c-0.04,0.13-0.12,0.29-0.22,0.47c-0.09,0.18-0.22,0.28-0.37,0.3c-0.04,0-0.08-0.01-0.11-0.03
	c-0.04-0.02-0.06-0.05-0.06-0.1c0.01-0.04,0.04-0.18,0.11-0.44c0.08-0.26,0.15-0.53,0.22-0.8c0.07-0.28,0.11-0.45,0.11-0.54
	c-0.01-0.2-0.06-0.34-0.16-0.42c-0.11-0.08-0.23-0.11-0.4-0.11c-0.15,0.01-0.32,0.06-0.5,0.16c-0.18,0.1-0.32,0.24-0.44,0.42
	l-0.01-0.01l0.15-0.57c-0.13,0.01-0.28,0.03-0.45,0.04c-0.17,0.01-0.3,0.02-0.4,0.02h-0.12l-0.04,0.15h0.51L108.56,33.17z"/>
    <line fill="none" stroke="#000000" stroke-width="0.3756" stroke-miterlimit="10" x1="-0.48" y1="34.55" x2="35.62" y2="34.55"/>
    <line fill="none" stroke="#000000" stroke-width="0.3756" stroke-miterlimit="10" x1="112.46" y1="34.55" x2="132.63" y2="34.55"/>
    <path d="M73.52,42.44h-2.44l0.1,0.2l0.27-0.05h1.06v3.92h-2.05l0.09,0.22l0.3-0.08h3.7v-0.04l-0.54-0.42l-0.3,0.32H72.9v-3.92h1.41
	l0.03-0.05l-0.49-0.49L73.52,42.44z M68.73,46.34l0.25,0.44c0.56-0.23,1.33-0.49,2.3-0.76l-0.03-0.13
	C69.8,46.21,68.96,46.36,68.73,46.34L68.73,46.34z M69.99,41.56c-0.15,0.44-0.36,0.95-0.64,1.53c-0.18,0.36-0.38,0.55-0.59,0.57
	c-0.02,0-0.02,0,0,0c0,0.15,0.08,0.3,0.22,0.44c0,0.02,0.03,0.01,0.08-0.03c0.36-0.13,0.76-0.25,1.18-0.34
	c-0.37,0.52-0.63,0.86-0.74,1.01c-0.2,0.26-0.41,0.4-0.64,0.42c-0.04,0-0.04,0-0.03,0c0.11,0.32,0.2,0.47,0.27,0.47h0.05
	c0.01-0.03,0.69-0.22,2.02-0.56v-0.1c-1.02,0.13-1.62,0.18-1.8,0.15c-0.02,0,0.03-0.06,0.15-0.17c0.25-0.25,0.69-0.73,1.33-1.45
	c0.13-0.17,0.28-0.27,0.44-0.32c0.05-0.02,0.08-0.04,0.08-0.08l-0.52-0.39c-0.11,0.2-0.28,0.47-0.49,0.83l-0.03,0.05
	c-0.73,0.07-1.09,0.08-1.11,0.05c0.13-0.21,0.27-0.41,0.4-0.59c0.26-0.41,0.44-0.68,0.54-0.81c0.15-0.2,0.28-0.3,0.42-0.32
	c0.02,0,0.03-0.01,0.03-0.03l-0.59-0.4C70,41.51,69.99,41.54,69.99,41.56L69.99,41.56z M75.16,44.12l0.05,0.05
	c0.23-0.13,0.52-0.36,0.89-0.69v2.79c0,0.03-0.01,0.06-0.03,0.1c0,0.41,0.26,0.63,0.79,0.66c1.48,0.1,2.6,0.1,3.35,0
	c0.43-0.06,0.68-0.25,0.74-0.54h-0.03c-0.2-0.1-0.3-0.45-0.3-1.06l-0.09,0.03c-0.02,0.05-0.03,0.1-0.03,0.15
	c-0.05,0.61-0.15,0.95-0.3,1.02c-0.1,0.03-0.4,0.06-0.92,0.07c-0.56,0.04-1.21,0.04-1.95,0.03c-0.69,0.03-0.98-0.16-0.87-0.57v-1.23
	h3.01v0.4c0.09,0,0.23-0.05,0.39-0.15c-0.03-0.57-0.04-1.12-0.03-1.63l0.05-0.03l0.2-0.15c-0.26-0.23-0.42-0.35-0.47-0.37
	c-0.03,0.02-0.08,0.07-0.15,0.15c-0.05,0.06-0.08,0.11-0.1,0.12h-1.26c0.56-0.56,1-0.85,1.33-0.86c0.03,0,0.06-0.01,0.07-0.03
	c-0.09-0.13-0.27-0.29-0.52-0.47c-0.03,0-0.09,0.04-0.17,0.15c-0.06,0.05-0.11,0.08-0.13,0.1h-1.53c0-0.02,0.02-0.05,0.05-0.1
	c0.03-0.03,0.09-0.11,0.17-0.22c0.07-0.08,0.16-0.14,0.27-0.18c0.04,0,0.05-0.01,0.05-0.02l-0.54-0.35
	C76.62,42.48,75.93,43.43,75.16,44.12L75.16,44.12z M77.95,43.25h-1.4l-0.13-0.07c0.03-0.04,0.11-0.13,0.22-0.3
	c0.15-0.2,0.31-0.4,0.47-0.59h1.67C78.56,42.61,78.28,42.93,77.95,43.25L77.95,43.25z M77.78,44.79H76.5v-1.21
	c-0.02-0.11,0.03-0.17,0.15-0.17h1.14V44.79z M79.51,44.79h-1.33v-1.38h1.33V44.79z"/>
    <path d="M122.62,34.61h8.99c-0.24,0.28-0.44,0.58-0.6,0.89c-0.16,0.32-0.24,0.67-0.23,1.04c0.35-0.48,0.77-0.9,1.24-1.27
	c0.48-0.36,1.01-0.65,1.57-0.85c-0.56-0.21-1.07-0.49-1.56-0.85c-0.47-0.37-0.89-0.79-1.25-1.27c0,0.36,0.08,0.71,0.23,1.09
	c0.15,0.36,0.35,0.66,0.6,0.89h-8.99V34.61z M134.93,37.95h-0.82v0.25h1.97v-0.25h-0.82v-6.69h0.02l2.05,6.94h0.28l2.13-6.94h0.02
	v6.69h-0.84v0.25h2.74v-0.25h-0.83v-6.82h0.83v-0.25h-2.18l-1.61,5.39h-0.02l-1.55-5.39h-2.19v0.25h0.82V37.95z M142.54,37.95v0.25
	h2.05v-0.25H144v-2.04c0.01-0.44,0.13-0.84,0.38-1.23c0.24-0.38,0.55-0.59,0.93-0.61c0.22-0.01,0.39,0.04,0.52,0.16
	c0.12,0.11,0.18,0.37,0.18,0.76v2.96h-0.57v0.25h2.02v-0.25h-0.59v-3.1c-0.03-0.48-0.2-0.8-0.5-0.93c-0.31-0.12-0.57-0.18-0.8-0.16
	c-0.39,0.01-0.71,0.11-0.95,0.33c-0.24,0.21-0.44,0.48-0.58,0.83H144v-1.16c-0.2,0.04-0.41,0.08-0.61,0.09
	c-0.2,0.02-0.41,0.02-0.61,0.02h-0.23v0.25h0.6v3.84H142.54z M151.16,30.75c-0.44,0.39-0.89,0.98-1.33,1.72
	c-0.44,0.75-0.69,1.65-0.75,2.72c-0.01,0.67,0.11,1.35,0.36,2.04c0.25,0.69,0.58,1.3,1.01,1.85c0.42,0.55,0.89,0.94,1.41,1.19
	l0.04-0.18c0,0.07-0.18-0.1-0.54-0.5c-0.36-0.41-0.72-0.99-1.08-1.75c-0.36-0.76-0.53-1.64-0.52-2.65c0.07-1.08,0.27-1.99,0.62-2.71
	s0.69-1.26,1.02-1.63c0.32-0.37,0.49-0.58,0.49-0.64l-0.04-0.08C151.83,30.15,151.6,30.34,151.16,30.75L151.16,30.75z"/>
    <path d="M162.65,38.52v-0.31h-0.94v-8.04h0.94v-0.31l-5.7,0.01v0.3h0.94v8.04h-0.94v0.31H162.65z M158.95,38.2v-8.02l1.69-0.01v8.04
	L158.95,38.2z M167.36,39.73c0.44-0.39,0.89-0.98,1.33-1.72c0.44-0.75,0.69-1.64,0.75-2.71c0.01-0.67-0.11-1.35-0.36-2.04
	c-0.25-0.69-0.58-1.32-1.01-1.86c-0.42-0.55-0.89-0.94-1.41-1.19l-0.04,0.18c0-0.07,0.18,0.1,0.54,0.5c0.36,0.41,0.72,1,1.08,1.76
	c0.36,0.76,0.53,1.64,0.52,2.65c-0.07,1.09-0.27,1.98-0.62,2.7c-0.35,0.72-0.69,1.26-1.01,1.63c-0.33,0.37-0.5,0.58-0.5,0.64
	l0.04,0.09C166.7,40.34,166.93,40.14,167.36,39.73L167.36,39.73z"/>
    <polygon points="173.72,35.22 173.72,35.86 175.95,35.86 175.95,38.2 176.58,38.2 176.58,35.86 178.81,35.86 178.81,35.22 
	176.58,35.22 176.58,32.87 175.95,32.87 175.95,35.22 "/>
    <path d="M186.83,36.64c-0.21,0.33-0.38,0.54-0.53,0.62c-0.15,0.08-0.32,0.11-0.52,0.1h-2.62l1.84-1.93c0.26-0.26,0.56-0.62,0.88-1.1
	c0.32-0.46,0.49-0.99,0.53-1.58c-0.02-0.61-0.23-1.1-0.61-1.45c-0.39-0.34-0.85-0.52-1.37-0.53c-0.49-0.01-0.96,0.14-1.4,0.47
	c-0.43,0.33-0.75,0.9-0.92,1.71l0.23,0.05c0.11-0.32,0.27-0.62,0.5-0.93c0.22-0.31,0.58-0.47,1.06-0.49
	c0.62,0.03,1.05,0.22,1.27,0.57c0.21,0.35,0.31,0.69,0.3,1c0,0.84-0.47,1.79-1.42,2.83l-1.95,2.07v0.13h4.27l0.6-1.5L186.83,36.64z"
	/>
    <path d="M187.48,38.2h0.79l0.45-1.8c0.15-0.64,0.38-1.17,0.7-1.62c0.32-0.44,0.68-0.67,1.11-0.69c0.12,0,0.23,0.02,0.34,0.08
	c0.1,0.05,0.15,0.16,0.15,0.34c-0.01,0.14-0.08,0.43-0.2,0.85c-0.13,0.42-0.25,0.87-0.37,1.32c-0.13,0.46-0.2,0.81-0.21,1.05
	c0.01,0.21,0.08,0.35,0.21,0.45c0.13,0.09,0.28,0.13,0.48,0.13c0.43-0.02,0.77-0.19,1.01-0.52c0.24-0.32,0.43-0.68,0.57-1.06
	l-0.21-0.09c-0.08,0.23-0.21,0.5-0.38,0.81c-0.16,0.32-0.38,0.48-0.64,0.52c-0.07,0-0.14-0.01-0.2-0.04
	c-0.08-0.03-0.11-0.09-0.11-0.18c0.01-0.07,0.08-0.32,0.2-0.77c0.13-0.45,0.25-0.92,0.38-1.39c0.12-0.48,0.19-0.79,0.2-0.93
	c-0.01-0.35-0.1-0.59-0.27-0.72c-0.19-0.13-0.41-0.19-0.69-0.19c-0.26,0.01-0.56,0.1-0.87,0.28c-0.31,0.18-0.56,0.42-0.76,0.72
	l-0.02-0.01l0.26-1c-0.22,0.02-0.48,0.04-0.78,0.08c-0.3,0.02-0.53,0.03-0.69,0.03h-0.21l-0.08,0.25h0.88L187.48,38.2z"/>
    <path d="M198.43,30.97l-0.37,0.33c-0.26-0.19-0.52-0.33-0.76-0.43c-0.25-0.11-0.54-0.15-0.85-0.15c-0.53,0.01-1.03,0.18-1.52,0.5
	c-0.48,0.32-0.89,0.77-1.19,1.34c-0.32,0.57-0.48,1.22-0.49,1.94c0,1.08,0.27,1.98,0.82,2.72s1.33,1.12,2.35,1.14
	c0.62,0.02,1.19-0.19,1.72-0.6l0.31,0.45h0.3v-1.99h-0.26c-0.14,0.49-0.38,0.93-0.71,1.28c-0.34,0.36-0.78,0.55-1.3,0.57
	c-0.84-0.02-1.38-0.33-1.63-0.92c-0.24-0.59-0.35-1.37-0.33-2.32c0-0.21,0-0.49,0.02-0.85c0.02-0.36,0.05-0.73,0.12-1.12
	c0.07-0.38,0.16-0.71,0.31-0.99c0.12-0.22,0.3-0.42,0.55-0.6c0.25-0.18,0.56-0.27,0.91-0.28c0.57,0.01,1.01,0.2,1.33,0.54
	c0.31,0.35,0.52,0.79,0.62,1.33h0.25v-1.86H198.43z M201.56,37.17c-0.27-0.61-0.39-1.49-0.38-2.63c-0.01-1.14,0.11-2.02,0.38-2.64
	c0.26-0.61,0.77-0.93,1.51-0.93c0.75,0,1.25,0.32,1.51,0.93c0.27,0.62,0.39,1.5,0.38,2.64c0.01,1.14-0.11,2.02-0.38,2.63
	c-0.26,0.62-0.77,0.94-1.51,0.94C202.32,38.11,201.82,37.79,201.56,37.17L201.56,37.17z M204.72,37.79c0.47-0.36,0.83-0.83,1.1-1.41
	c0.26-0.58,0.39-1.19,0.39-1.85c0-0.66-0.13-1.28-0.39-1.85c-0.26-0.58-0.62-1.04-1.1-1.4c-0.47-0.36-1.02-0.55-1.65-0.56
	c-0.64,0.01-1.18,0.2-1.65,0.56s-0.83,0.82-1.1,1.4c-0.26,0.57-0.39,1.19-0.39,1.85c0,0.66,0.13,1.27,0.39,1.85
	c0.26,0.58,0.62,1.05,1.1,1.41c0.47,0.36,1.02,0.55,1.65,0.56C203.7,38.34,204.25,38.16,204.72,37.79L204.72,37.79z"/>
    <path d="M209.66,39.85c-0.12,0.19-0.22,0.31-0.3,0.36c-0.09,0.04-0.18,0.06-0.3,0.06h-1.51l1.06-1.11c0.15-0.15,0.32-0.36,0.51-0.63
	c0.18-0.27,0.28-0.57,0.3-0.91c-0.01-0.35-0.13-0.63-0.35-0.83c-0.23-0.2-0.49-0.3-0.79-0.3c-0.28-0.01-0.56,0.08-0.81,0.27
	c-0.25,0.19-0.43,0.52-0.53,0.99l0.13,0.03c0.06-0.18,0.16-0.36,0.29-0.54c0.13-0.18,0.33-0.27,0.61-0.28
	c0.36,0.02,0.61,0.13,0.73,0.33c0.12,0.2,0.18,0.4,0.17,0.57c0,0.49-0.27,1.03-0.82,1.63l-1.12,1.19v0.08h2.46l0.35-0.87
	L209.66,39.85z"/>
    <path d="M215.16,37.64c0.19,0.39,0.19,0.79,0,1.19c-0.18,0.39-0.55,0.6-1.1,0.64c-0.55-0.03-0.91-0.24-1.1-0.64
	c-0.19-0.41-0.19-0.8,0-1.19s0.55-0.6,1.1-0.64C214.62,37.04,214.99,37.25,215.16,37.64L215.16,37.64z M215.17,39.25
	c0.25-0.3,0.37-0.64,0.37-1.02c0-0.37-0.12-0.71-0.37-1.01c-0.24-0.3-0.61-0.45-1.11-0.46c-0.49,0.01-0.87,0.16-1.11,0.46
	c-0.25,0.3-0.37,0.64-0.37,1.01c0,0.38,0.12,0.72,0.37,1.02c0.24,0.28,0.61,0.44,1.11,0.46C214.56,39.69,214.93,39.54,215.17,39.25
	L215.17,39.25z"/>
</svg>
